<svg width="34" height="34" viewBox="0 0 34 34" fill="none" xmlns="http://www.w3.org/2000/svg">
<path fill-rule="evenodd" clip-rule="evenodd" d="M20.3347 28.3381V27.7966C20.3391 26.2558 21.5871 25.0078 23.1279 25.0034H27.5457C29.0865 25.0078 30.3345 26.2558 30.3389 27.7966V28.3381C30.3389 28.7065 30.0403 29.0051 29.6719 29.0051H21.0017C20.6333 29.0051 20.3347 28.7065 20.3347 28.3381Z" stroke="white" stroke-width="1.5" stroke-linecap="round" stroke-linejoin="round"/>
<path fill-rule="evenodd" clip-rule="evenodd" d="M22.7691 19.7211C22.4457 18.5623 22.9379 17.3304 23.9709 16.7136C25.0038 16.0967 26.3218 16.2476 27.1886 17.0818C28.0554 17.9161 28.2566 19.2273 27.6798 20.2831C27.103 21.3389 25.8909 21.8779 24.7205 21.5992C23.777 21.3745 23.0298 20.6553 22.7691 19.7211Z" stroke="white" stroke-width="1.5" stroke-linecap="round" stroke-linejoin="round"/>
<path fill-rule="evenodd" clip-rule="evenodd" d="M3.66113 25.6704V25.1289C3.66553 23.5881 4.9135 22.3401 6.4543 22.3357H10.8721C12.4129 22.3401 13.6609 23.5881 13.6653 25.1289V25.6704C13.6653 26.0388 13.3667 26.3374 12.9984 26.3374H4.32808C3.95973 26.3374 3.66113 26.0388 3.66113 25.6704Z" stroke="white" stroke-width="1.5" stroke-linecap="round" stroke-linejoin="round"/>
<path fill-rule="evenodd" clip-rule="evenodd" d="M6.09548 17.0533C5.77211 15.8945 6.26436 14.6627 7.29728 14.0458C8.33019 13.429 9.64817 13.5798 10.515 14.4141C11.3819 15.2483 11.5831 16.5596 11.0062 17.6154C10.4294 18.6711 9.2173 19.2102 8.04696 18.9315C7.10342 18.7067 6.35619 17.9876 6.09548 17.0533Z" stroke="white" stroke-width="1.5" stroke-linecap="round" stroke-linejoin="round"/>
<ellipse cx="18.3339" cy="8.99669" rx="5.33556" ry="5.33556" stroke="white" stroke-width="1.5" stroke-linecap="round" stroke-linejoin="round"/>
<path d="M20.128 7.94043L17.887 10.18L16.5398 8.8368" stroke="white" stroke-width="1.5" stroke-linecap="round" stroke-linejoin="round"/>
</svg>
