<svg width="34" height="34" viewBox="0 0 34 34" fill="none" xmlns="http://www.w3.org/2000/svg">
<path d="M17 29.0051C10.3698 29.0051 4.995 23.6303 4.995 17.0001C4.995 10.3699 10.3698 4.99512 17 4.99512C23.6302 4.99512 29.005 10.3699 29.005 17.0001" stroke="white" stroke-width="1.5" stroke-linecap="round" stroke-linejoin="round"/>
<path d="M5.67932 12.9985H28.1794" stroke="white" stroke-width="1.5" stroke-linecap="round" stroke-linejoin="round"/>
<path d="M5.6806 21.0017H17" stroke="white" stroke-width="1.5" stroke-linecap="round" stroke-linejoin="round"/>
<path d="M22.3356 17C22.3456 13.2735 21.3468 9.61369 19.445 6.40895C18.9418 5.53441 18.0096 4.99536 17.0007 4.99536C15.9917 4.99536 15.0595 5.53441 14.5563 6.40895C10.7014 12.944 10.7014 21.0574 14.5563 27.5924C15.0617 28.4651 15.9928 29.0036 17.0013 29.0064" stroke="white" stroke-width="1.5" stroke-linecap="round" stroke-linejoin="round"/>
<ellipse cx="25.0033" cy="25.0035" rx="5.33555" ry="5.33556" stroke="white" stroke-width="1.5" stroke-linecap="round" stroke-linejoin="round"/>
<path d="M26.6627 24.175L24.5872 26.2506L23.3427 25.0047" stroke="white" stroke-width="1.5" stroke-linecap="round" stroke-linejoin="round"/>
</svg>
