<svg width="34" height="34" viewBox="0 0 34 34" fill="none" xmlns="http://www.w3.org/2000/svg">
<path d="M11.331 16.2278V20.7203" stroke="white" stroke-width="1.5" stroke-linecap="round" stroke-linejoin="round"/>
<path fill-rule="evenodd" clip-rule="evenodd" d="M14.5256 19.8786V19.8786C14.5256 20.4989 15.0285 21.0018 15.6488 21.0018H20.3467C20.7221 21.002 21.0726 20.8142 21.2804 20.5016L22.4809 18.6982C22.6037 18.5131 22.6691 18.2959 22.669 18.0739V15.877V15.877C22.669 15.5791 22.5507 15.2934 22.3401 15.0828C22.1294 14.8722 21.8438 14.7538 21.5459 14.7538H19.4677V12.8437C19.4677 12.1925 18.9398 11.6646 18.2885 11.6646H17.6149C17.2198 11.6639 16.8535 11.8711 16.6505 12.2101L14.8458 15.2194C14.6364 15.5683 14.5257 15.9676 14.5256 16.3745V19.8786Z" stroke="white" stroke-width="1.5" stroke-linecap="round" stroke-linejoin="round"/>
<path fill-rule="evenodd" clip-rule="evenodd" d="M7.1712 23.8806L6.32889 27.6712L10.1195 26.8289C15.2258 30.4063 22.2195 29.487 26.2278 24.7114C30.2361 19.9358 29.9288 12.8885 25.5202 8.47988C21.1115 4.07121 14.0643 3.76399 9.28868 7.77226C4.51308 11.7805 3.59373 18.7743 7.1712 23.8806Z" stroke="white" stroke-width="1.5" stroke-linecap="round" stroke-linejoin="round"/>
</svg>
