<svg width="17" height="13" viewBox="0 0 17 13" fill="none" xmlns="http://www.w3.org/2000/svg">
<path d="M16.351 2.99814C16.3511 2.66473 16.2855 2.33457 16.158 2.0265C16.0305 1.71844 15.8435 1.43852 15.6078 1.20273C15.3721 0.966939 15.0922 0.779894 14.7842 0.652281C14.4761 0.524667 14.146 0.458984 13.8126 0.458984H1.90682C1.57347 0.459081 1.24341 0.524835 0.935467 0.652493C0.627529 0.78015 0.34775 0.96721 0.112105 1.20299C-0.123541 1.43877 -0.310438 1.71866 -0.437916 2.02667C-0.565394 2.33469 -0.630956 2.66479 -0.630859 2.99814V9.73256C-0.631053 10.066 -0.565562 10.3962 -0.438128 10.7043C-0.310693 11.0124 -0.123811 11.2923 0.111844 11.5282C0.347499 11.764 0.627311 11.9512 0.935297 12.0789C1.24328 12.2066 1.57341 12.2724 1.90682 12.2725H13.8126C14.1461 12.2725 14.4763 12.2067 14.7843 12.0791C15.0924 11.9514 15.3723 11.7643 15.608 11.5284C15.8438 11.2926 16.0307 11.0126 16.1582 10.7044C16.2857 10.3963 16.3512 10.066 16.351 9.73256V2.99814ZM6.01422 9.27405V2.88001L11.0121 6.07777L6.01422 9.27405Z" fill="white"/>
</svg>
