<svg width="36" height="36" viewBox="0 0 36 36" fill="none" xmlns="http://www.w3.org/2000/svg">
<path fill-rule="evenodd" clip-rule="evenodd" d="M27.4532 10.4884L23.7456 6.78081C22.7622 5.79722 21.4283 5.24463 20.0374 5.24463C18.6465 5.24463 17.3126 5.79722 16.3291 6.78081L14.6667 8.44325C14.479 8.63053 14.4228 8.91248 14.5243 9.15738C14.6258 9.40229 14.865 9.56183 15.1301 9.56146H16.1704C16.8657 9.56173 17.5324 9.83802 18.0242 10.3296L19.1098 11.4152V13.2704L21.8919 16.0511L23.3233 15.6259L24.6725 16.9737V18.8275L25.469 19.624C26.0534 20.2081 27.0006 20.2081 27.585 19.624L31.0303 16.1772C31.3115 15.8969 31.4696 15.5163 31.4696 15.1192C31.4696 14.7222 31.3115 14.3415 31.0303 14.0613L30.2352 13.2662H28.3801L27.0322 11.9169L27.4532 10.4884Z" stroke="white" stroke-width="2" stroke-linecap="round" stroke-linejoin="round"/>
<path fill-rule="evenodd" clip-rule="evenodd" d="M5.51681 29.7702V29.7702C6.18229 30.4354 7.09591 30.7916 8.03603 30.7523C8.97615 30.7129 9.85685 30.2817 10.4645 29.5633L21.8918 16.0512L19.1097 13.2705L5.6968 24.8438C4.98888 25.455 4.56728 26.3332 4.53313 27.2678C4.49898 28.2024 4.85538 29.109 5.51681 29.7702Z" stroke="white" stroke-width="2" stroke-linecap="round" stroke-linejoin="round"/>
</svg>
