<svg width="36" height="36" viewBox="0 0 36 36" fill="none" xmlns="http://www.w3.org/2000/svg">
<path d="M8.52706 26.6621C7.90643 27.583 7.93283 28.7948 8.59298 29.6878C9.25313 30.5807 10.404 30.9613 11.4663 30.6379C12.5287 30.3146 13.2724 29.3573 13.3231 28.248" stroke="white" stroke-width="2" stroke-linecap="round" stroke-linejoin="round"/>
<path fill-rule="evenodd" clip-rule="evenodd" d="M16.1349 29.1778L6.21412 25.8969C5.63688 25.7083 5.24593 25.1705 5.24472 24.5632V22.6882C5.24593 22.081 5.63688 21.5431 6.21412 21.3546L16.1349 18.0736C16.565 17.9304 17.0377 18.0015 17.4066 18.265C17.7755 18.5285 17.9961 18.9525 18 19.4058V27.8456C17.9938 28.6239 17.3611 29.2515 16.5828 29.2515C16.4304 29.2521 16.2791 29.2271 16.1349 29.1778Z" stroke="white" stroke-width="2" stroke-linecap="round" stroke-linejoin="round"/>
<path d="M5.24472 16.5827V12.3309C5.24472 8.41727 8.41736 5.24463 12.331 5.24463H23.6691C27.5827 5.24463 30.7553 8.41727 30.7553 12.3309V25.0862C30.7553 28.2171 28.2172 30.7553 25.0863 30.7553H22.2518" stroke="white" stroke-width="2" stroke-linecap="round" stroke-linejoin="round"/>
</svg>
